<svg width="204" height="69" viewBox="0 0 204 69" fill="none" xmlns="http://www.w3.org/2000/svg">
<path d="M0 69V0H7.17188V69H0ZM10.7008 68.9509V0H14.3438V68.9509H10.7008ZM21.5156 68.9509V0H25.0446V68.9509H21.5156ZM39.3883 68.9509V0H42.9173V68.9509H39.3883ZM53.7321 68.9509V0H60.79V68.9509H53.7321ZM71.6048 68.9509V0H75.1338V68.9509H71.6048ZM78.7767 68.9509V0H82.3056V68.9509H78.7767ZM85.9485 68.9509V0H89.4775V68.9509H85.9485ZM100.179 68.9509V0H107.351V68.9509H100.179ZM118.051 68.9509V0H125.223V68.9509H118.051ZM132.395 68.9509V0H139.567V68.9509H132.395ZM146.739 68.9509V0H153.911V68.9509H146.739ZM157.44 68.9509V0H164.612V68.9509H157.44ZM175.426 68.9509V0H186.127V68.9509H175.426ZM189.656 68.9509V0H193.299V68.9509H189.656ZM196.828 69V0H204V69H196.828Z" fill="#333333"/>
</svg>
