<svg width="14" height="24" viewBox="0 0 14 24" fill="none" xmlns="http://www.w3.org/2000/svg">
<path d="M11.0185 23.5251L0.348284 12.8865C0.221635 12.7599 0.132137 12.6227 0.0797886 12.4749C0.026596 12.3272 0 12.1689 0 12C0 11.8311 0.026596 11.6728 0.0797886 11.5251C0.132137 11.3773 0.221635 11.2401 0.348284 11.1135L11.0185 0.443272C11.314 0.147757 11.6834 0 12.1266 0C12.5699 0 12.9499 0.158311 13.2665 0.474934C13.5831 0.791557 13.7414 1.16095 13.7414 1.58311C13.7414 2.00528 13.5831 2.37467 13.2665 2.69129L3.95778 12L13.2665 21.3087C13.562 21.6042 13.7098 21.9681 13.7098 22.4004C13.7098 22.8336 13.5515 23.2084 13.2348 23.5251C12.9182 23.8417 12.5488 24 12.1266 24C11.7045 24 11.3351 23.8417 11.0185 23.5251Z" fill="black"/>
</svg>
