<svg width="27" height="27" viewBox="0 0 27 27" fill="none" xmlns="http://www.w3.org/2000/svg">
<path d="M24.2528 4.04099L22.959 2.74724C22.8031 2.58942 22.6174 2.46411 22.4127 2.37859C22.208 2.29306 21.9883 2.24902 21.7665 2.24902C21.5446 2.24902 21.325 2.29306 21.1203 2.37859C20.9156 2.46411 20.7299 2.58942 20.574 2.74724L14.625 8.69737V12.375H18.3038L24.2528 6.42599C24.4106 6.27008 24.5359 6.08439 24.6214 5.87969C24.7069 5.67499 24.751 5.45534 24.751 5.23349C24.751 5.01164 24.7069 4.792 24.6214 4.5873C24.5359 4.38259 24.4106 4.1969 24.2528 4.04099V4.04099ZM17.5264 10.6312H16.3676V9.47249L20.25 5.59462L21.4088 6.75337L17.5264 10.6312Z" fill="#4C8C0D"/>
<path d="M21.375 21.375H5.625V5.625H12.375V3.375H5.625C5.02881 3.37678 4.45755 3.61441 4.03598 4.03598C3.61441 4.45755 3.37678 5.02881 3.375 5.625V21.375C3.37678 21.9712 3.61441 22.5425 4.03598 22.964C4.45755 23.3856 5.02881 23.6232 5.625 23.625H21.375C21.9712 23.6232 22.5425 23.3856 22.964 22.964C23.3856 22.5425 23.6232 21.9712 23.625 21.375V14.625H21.375V21.375Z" fill="#4C8C0D"/>
</svg>
