<svg width="36" height="36" viewBox="0 0 36 36" fill="none" xmlns="http://www.w3.org/2000/svg">
<path d="M27.4727 28.7793L28.6461 27.6299C34.0755 27.8047 34.1589 27.617 34.3975 27.0667L35.8892 23.486L36 23.1465L35.8787 22.8495C35.8148 22.6927 35.618 22.2247 32.2279 19.0373V17.3607C36.1395 13.645 36.0561 13.4547 35.8331 12.9108L34.348 9.29274C34.125 8.75016 34.0403 8.53802 28.6501 8.68331L27.4766 7.48757C27.5977 5.72625 27.5361 3.95733 27.2927 2.20835L27.1415 1.8702L23.2637 0.198748C22.6926 -0.058399 22.4918 -0.150972 18.8306 3.7808L17.1851 3.75637C13.4156 -0.211401 13.2369 -0.1394 12.6724 0.0856032L9.06715 1.52305C8.50257 1.74806 8.30308 1.82777 8.52213 7.22786L7.35777 8.37216C1.93104 8.1973 1.84759 8.38759 1.61159 8.93531L0.117349 12.5174L0 12.8607L0.122564 13.1589C0.186454 13.3132 0.375516 13.7761 3.77342 16.9673V18.6387C-0.13821 22.3545 -0.0534588 22.5448 0.170808 23.09L1.65462 26.7119C1.88149 27.266 1.96233 27.4627 7.35125 27.3239L8.52474 28.526C8.4031 30.2846 8.46295 32.0509 8.70337 33.7975L8.85462 34.1383L12.7571 35.82C13.3243 36.054 13.5212 36.1376 17.172 32.22L18.8175 32.2405C22.5922 36.2134 22.7852 36.1363 23.3368 35.9164L26.9342 34.4828C27.5026 34.2604 27.7008 34.182 27.4727 28.7793ZM12.0113 20.3912C11.5563 19.2187 11.4626 17.9398 11.742 16.7149C12.0214 15.4901 12.6614 14.3739 13.5817 13.5065C14.502 12.639 15.6617 12.0588 16.9151 11.8388C18.1685 11.6188 19.4599 11.7687 20.6273 12.2697C21.7946 12.7708 22.7859 13.6006 23.4768 14.6551C24.1676 15.7097 24.5273 16.9419 24.5105 18.1972C24.4938 19.4525 24.1015 20.675 23.3828 21.7113C22.6642 22.7476 21.6511 23.5515 20.4708 24.0221C18.8605 24.6431 17.0662 24.6097 15.4807 23.9292C13.8953 23.2487 12.6478 21.9766 12.0113 20.3912Z" fill="white"/>
</svg>
